<svg width="2574" height="1262" xmlns="http://www.w3.org/2000/svg" xmlns:xlink="http://www.w3.org/1999/xlink" xml:space="preserve" overflow="hidden"><defs><clipPath id="clip0"><rect x="313" y="937" width="2574" height="1262"/></clipPath></defs><g clip-path="url(#clip0)" transform="translate(-313 -937)"><text font-family="Arial,Arial_MSFontService,sans-serif" font-weight="400" font-size="55" transform="matrix(1 0 0 1 665.903 1018)">CodeX</text><text font-family="Arial,Arial_MSFontService,sans-serif" font-weight="400" font-size="55" transform="matrix(1 0 0 1 848.663 1018)">RT</text><rect x="315.5" y="1088.5" width="886" height="256" stroke="#000000" stroke-width="4.58333" stroke-miterlimit="8" fill="#EDF1F3"/><text fill="#2E75B6" font-family="Arial,Arial_MSFontService,sans-serif" font-weight="700" font-size="46" transform="matrix(1 0 0 1 348 1150)">Radiotherapy </text><text fill="#2E75B6" font-family="Arial,Arial_MSFontService,sans-serif" font-weight="700" font-size="46" transform="matrix(1 0 0 1 348 1205)">Course Prescription, Planned </text><text fill="#2E75B6" font-family="Arial,Arial_MSFontService,sans-serif" font-weight="700" font-size="46" transform="matrix(1 0 0 1 348 1260)">Course, Course Summary </text><text font-family="Arial,Arial_MSFontService,sans-serif" font-weight="400" font-size="46" transform="matrix(1 0 0 1 348 1315)">ServiceRequest/</text><text font-family="Arial,Arial_MSFontService,sans-serif" font-weight="400" font-size="46" transform="matrix(1 0 0 1 682.584 1315)">Procedure.bodySite</text><text font-family="Arial,Arial_MSFontService,sans-serif" font-weight="400" font-size="46" transform="matrix(1 0 0 1 1082.48 1315)">(s)</text><text font-family="Arial,Arial_MSFontService,sans-serif" font-weight="400" font-size="55" transform="matrix(1 0 0 1 2266.08 1007)">ARIA RTM</text><rect x="2025.5" y="1443.5" width="856" height="148" stroke="#000000" stroke-width="4.58333" stroke-miterlimit="8" fill="#EDF1F3"/><text fill="#2E75B6" font-family="Arial,Arial_MSFontService,sans-serif" font-weight="700" font-size="46" transform="matrix(1 0 0 1 2057.59 1505)">Prescription site </text><text fill="#2E75B6" font-family="Arial,Arial_MSFontService,sans-serif" font-weight="400" font-size="46" transform="matrix(1 0 0 1 2427.69 1505)">of RT Prescription</text><rect x="2025.5" y="1086.5" width="856" height="260" stroke="#000000" stroke-width="4.58333" stroke-miterlimit="8" fill="#EDF1F3"/><text fill="#2E75B6" font-family="Arial,Arial_MSFontService,sans-serif" font-weight="700" font-size="46" transform="matrix(1 0 0 1 2057.59 1147)">Prescription sites </text><text fill="#2E75B6" font-family="Arial,Arial_MSFontService,sans-serif" font-weight="400" font-size="46" transform="matrix(1 0 0 1 2452.9 1147)">of all prescriptions </text><text fill="#2E75B6" font-family="Arial,Arial_MSFontService,sans-serif" font-weight="400" font-size="46" transform="matrix(1 0 0 1 2057.59 1202)">in the Course</text><rect x="315.5" y="1389.5" width="886" height="256" stroke="#000000" stroke-width="4.58333" stroke-miterlimit="8" fill="#EDF1F3"/><text fill="#2E75B6" font-family="Arial,Arial_MSFontService,sans-serif" font-weight="700" font-size="46" transform="matrix(1 0 0 1 348 1451)">Radiotherapy </text><text fill="#2E75B6" font-family="Arial,Arial_MSFontService,sans-serif" font-weight="700" font-size="46" transform="matrix(1 0 0 1 348 1506)">Phase Prescription, Planned Phase, </text><text fill="#2E75B6" font-family="Arial,Arial_MSFontService,sans-serif" font-weight="700" font-size="46" transform="matrix(1 0 0 1 348 1561)">Treated Phase, Treated Plan </text><text font-family="Arial,Arial_MSFontService,sans-serif" font-weight="400" font-size="46" transform="matrix(1 0 0 1 348 1616)">ServiceRequest/</text><text font-family="Arial,Arial_MSFontService,sans-serif" font-weight="400" font-size="46" transform="matrix(1 0 0 1 682.584 1616)">Procedure.bodySite</text><text font-family="Arial,Arial_MSFontService,sans-serif" font-weight="400" font-size="46" transform="matrix(1 0 0 1 1082.48 1616)">(s)</text><rect x="2025.5" y="1772.5" width="859" height="88" stroke="#000000" stroke-width="4.58333" stroke-miterlimit="8" fill="#EDF1F3"/><text fill="#2E75B6" font-family="Arial,Arial_MSFontService,sans-serif" font-weight="700" font-size="46" transform="matrix(1 0 0 1 2057.59 1833)">Prescription</text><text fill="#2E75B6" font-family="Arial,Arial_MSFontService,sans-serif" font-weight="700" font-size="46" transform="matrix(1 0 0 1 2336.6 1833)">targets</text><rect x="315.5" y="1688.5" width="886" height="256" stroke="#000000" stroke-width="4.58333" stroke-miterlimit="8" fill="#EDF1F3"/><text fill="#2E75B6" font-family="Arial,Arial_MSFontService,sans-serif" font-weight="700" font-size="46" transform="matrix(1 0 0 1 348 1750)">Radiotherapy </text><text fill="#2E75B6" font-family="Arial,Arial_MSFontService,sans-serif" font-weight="700" font-size="46" transform="matrix(1 0 0 1 348 1805)">Prescribed Phase </text><text font-family="Arial,Arial_MSFontService,sans-serif" font-weight="400" font-size="46" transform="matrix(1 0 0 1 348 1860)">ServiceRequest.dose</text><text font-family="Arial,Arial_MSFontService,sans-serif" font-weight="400" font-size="46" transform="matrix(1 0 0 1 781.125 1860)">-</text><text font-family="Arial,Arial_MSFontService,sans-serif" font-weight="400" font-size="46" transform="matrix(1 0 0 1 796.594 1860)">prescribed</text><text font-family="Arial,Arial_MSFontService,sans-serif" font-weight="400" font-size="46" transform="matrix(1 0 0 1 1009.72 1860)">-</text><text font-family="Arial,Arial_MSFontService,sans-serif" font-weight="400" font-size="46" transform="matrix(1 0 0 1 1025.19 1860)">to</text><text font-family="Arial,Arial_MSFontService,sans-serif" font-weight="400" font-size="46" transform="matrix(1 0 0 1 1063 1860)">-</text><text font-family="Arial,Arial_MSFontService,sans-serif" font-weight="400" font-size="46" transform="matrix(1 0 0 1 348 1915)">volume.volume.identifier</text><text font-family="Arial,Arial_MSFontService,sans-serif" font-weight="400" font-size="46" transform="matrix(1 0 0 1 840.136 1915)">/display</text><rect x="2021.5" y="1995.5" width="860" height="133" stroke="#000000" stroke-width="4.58333" stroke-miterlimit="8" fill="#EDF1F3"/><text fill="#2E75B6" font-family="Arial,Arial_MSFontService,sans-serif" font-weight="700" font-size="46" transform="matrix(1 0 0 1 2054.39 2056)">Reference Points </text><text fill="#2E75B6" font-family="Arial,Arial_MSFontService,sans-serif" font-weight="400" font-size="37" transform="matrix(1 0 0 1 2054.39 2102)">for planned and delivered dose in ARIA</text><rect x="315.5" y="1989.5" width="881" height="145" stroke="#000000" stroke-width="4.58333" stroke-miterlimit="8" fill="#EDF1F3"/><text fill="#2E75B6" font-family="Arial,Arial_MSFontService,sans-serif" font-weight="700" font-size="46" transform="matrix(1 0 0 1 348 2051)">Radiotherapy Volume</text><text font-family="Arial,Arial_MSFontService,sans-serif" font-weight="400" font-size="46" transform="matrix(1 0 0 1 348 2106)">(</text><text font-family="Arial,Arial_MSFontService,sans-serif" font-weight="400" font-size="46" transform="matrix(1 0 0 1 363.469 2106)">BodyStructure</text><text font-family="Arial,Arial_MSFontService,sans-serif" font-weight="400" font-size="46" transform="matrix(1 0 0 1 652.219 2106)">)</text><path d="M2024.21 1217.15 1223.92 1217.15 1223.92 1214.85 2024.21 1214.85ZM1228.5 1229.75 1201 1216 1228.5 1202.25Z" fill="#4472C4"/><path d="M5.02331e-07-1.14583 800.29-1.14548 800.29 1.14618-5.02331e-07 1.14583ZM795.707-13.7497 823.207 0.000360892 795.707 13.7503Z" fill="#4472C4" transform="matrix(-1 0 0 1 2024.21 1517)"/><path d="M2024.21 1817.15 1223.92 1817.15 1223.92 1814.85 2024.21 1814.85ZM1228.5 1829.75 1201 1816 1228.5 1802.25Z" fill="#4472C4"/><path d="M5.01294e-07-1.14583 801.993-1.14548 801.993 1.14618-5.01294e-07 1.14583ZM797.41-13.7497 824.91 0.000360892 797.41 13.7503Z" fill="#4472C4" transform="matrix(-1 0 0 1 2020.91 2061)"/><text font-family="Arial,Arial_MSFontService,sans-serif" font-weight="400" font-size="37" transform="matrix(1 0 0 1 1359.18 1031)">CodeableConcept</text><text font-family="Arial,Arial_MSFontService,sans-serif" font-weight="400" font-size="37" transform="matrix(1 0 0 1 1665.12 1031)">containing </text><text font-family="Arial,Arial_MSFontService,sans-serif" font-weight="400" font-size="37" transform="matrix(1 0 0 1 1359.18 1075)">-</text><text font-family="Arial,Arial_MSFontService,sans-serif" font-weight="400" font-size="37" transform="matrix(1 0 0 1 1421.06 1075)">ARIA specific code (list value)</text><text font-family="Arial,Arial_MSFontService,sans-serif" font-weight="400" font-size="37" transform="matrix(1 0 0 1 1359.18 1119)">-</text><text font-family="Arial,Arial_MSFontService,sans-serif" font-weight="400" font-size="37" transform="matrix(1 0 0 1 1421.06 1119)">SNOMED CT code </text><text font-family="Arial,Arial_MSFontService,sans-serif" font-weight="400" font-size="37" transform="matrix(1 0 0 1 1421.06 1163)">if mapping successful</text><text font-family="Arial,Arial_MSFontService,sans-serif" font-weight="400" font-size="37" transform="matrix(1 0 0 1 1359.18 1790)">display name</text><text font-family="Arial,Arial_MSFontService,sans-serif" font-weight="400" font-size="37" transform="matrix(1 0 0 1 1359.18 1948)">display name, </text><text font-family="Arial,Arial_MSFontService,sans-serif" font-weight="400" font-size="37" transform="matrix(1 0 0 1 1359.18 1992)">UID</text><text font-family="Arial,Arial_MSFontService,sans-serif" font-weight="400" font-size="37" transform="matrix(1 0 0 1 1359.18 2036)">type (target/OAR), </text><text font-family="Arial,Arial_MSFontService,sans-serif" font-weight="400" font-size="37" transform="matrix(1 0 0 1 1359.18 2124)">primary (true/false), </text><text font-family="Arial,Arial_MSFontService,sans-serif" font-weight="400" font-size="37" transform="matrix(1 0 0 1 1359.18 2168)">point dose (true/false)</text><text font-family="Arial,Arial_MSFontService,sans-serif" font-weight="400" font-size="37" transform="matrix(1 0 0 1 1359.18 1339)">CodeableConcept</text><text font-family="Arial,Arial_MSFontService,sans-serif" font-weight="400" font-size="37" transform="matrix(1 0 0 1 1665.12 1339)">containing </text><text font-family="Arial,Arial_MSFontService,sans-serif" font-weight="400" font-size="37" transform="matrix(1 0 0 1 1359.18 1383)">-</text><text font-family="Arial,Arial_MSFontService,sans-serif" font-weight="400" font-size="37" transform="matrix(1 0 0 1 1421.06 1383)">ARIA specific code (list value)</text><text font-family="Arial,Arial_MSFontService,sans-serif" font-weight="400" font-size="37" transform="matrix(1 0 0 1 1359.18 1427)">-</text><text font-family="Arial,Arial_MSFontService,sans-serif" font-weight="400" font-size="37" transform="matrix(1 0 0 1 1421.06 1427)">SNOMED CT code </text><text font-family="Arial,Arial_MSFontService,sans-serif" font-weight="400" font-size="37" transform="matrix(1 0 0 1 1421.06 1471)">if mapping successful</text></g></svg>